<?xml version="1.0" standalone="no"?><!DOCTYPE svg PUBLIC "-//W3C//DTD SVG 1.1//EN" "http://www.w3.org/Graphics/SVG/1.1/DTD/svg11.dtd"><svg t="1637635271612" class="icon" viewBox="0 0 1024 1024" version="1.1" xmlns="http://www.w3.org/2000/svg" p-id="1796" xmlns:xlink="http://www.w3.org/1999/xlink" width="64" height="64"><defs><style type="text/css"></style></defs><path d="M512.123058 0a511.992486 511.992486 0 1 0 511.876886 511.992486A511.876886 511.876886 0 0 0 512.123058 0z m-41.038007 843.880142c-49.245608 71.094012-162.418027 74.330812-250.620842 11.560002s-123.692021-170.510029-74.677613-241.257241l130.050022-194.092432 73.406012 52.020008-130.743622 188.774832c-22.426404 32.136805-1.8496 87.624815 49.939209 128.431622 47.742808 37.801206 110.744819 36.760806 134.442822 2.5432l132.362022-190.277632 66.238812 55.025609z m-69.938012-330.616056l73.637212 52.135609-81.844813 118.14322-73.637213-52.135609z m108.201618-107.623618l117.10282-82.885214 51.442008 74.330813-116.987219 83.347614z m307.380452 87.971615L611.076674 639.036907l-51.095208-73.752812 205.305634-145.309224a111.785219 111.785219 0 0 0 27.744005-159.181227 108.895218 108.895218 0 0 0-156.060026-28.553205L429.815844 384.023265l-51.442009-73.984013 211.548036-149.702025c90.399215-63.811211 217.328037-43.118807 276.746446 49.823608s38.494806 221.142837-49.939208 283.451248z" fill="#BB763A" p-id="1797"></path></svg>