<?xml version="1.0" standalone="no"?><!DOCTYPE svg PUBLIC "-//W3C//DTD SVG 1.1//EN" "http://www.w3.org/Graphics/SVG/1.1/DTD/svg11.dtd"><svg t="1637635328337" class="icon" viewBox="0 0 1024 1024" version="1.1" xmlns="http://www.w3.org/2000/svg" p-id="1958" xmlns:xlink="http://www.w3.org/1999/xlink" width="64" height="64"><defs><style type="text/css"></style></defs><path d="M1006.85155 647.30832l-157.422512-156.933116 61.663947-61.663948a60.685155 60.685155 0 0 0-57.585644-102.28385 59.706362 59.706362 0 0 0-28.22186 16.313214l-61.663948 61.500816-143.393148-143.393149 61.500816-61.663948a60.522023 60.522023 0 0 0 0-84.991843 61.337684 61.337684 0 0 0-84.991844 0l-61.337683 61.663948-158.238173-158.238173a61.337684 61.337684 0 0 0-69.004894-11.745514L305.546493 3.262643 148.776509 160.685155A505.709625 505.709625 0 0 0 108.646003 830.342577l-2.610114 2.28385-62.316476 45.187602a60.848287 60.848287 0 0 0 85.970636 85.970637l61.663948-45.187602c0.978793 0 1.468189-1.794454 2.446982-2.610115a505.709625 505.709625 0 0 0 669.983687-40.130505l143.230016-142.577488s6.199021-7.014682 7.830342-9.624796 3.588907-7.177814 3.588907-7.177814a61.011419 61.011419 0 0 0-11.582381-69.168026z m-628.548124 157.096248l74.06199-206.035889h-143.230016l69.168026-248.450245H549.755302l-85.644372 168.352365h153.181077z" fill="#C33DC7" p-id="1959"></path></svg>