<svg viewBox="0 0 68.05 65.22" xmlns:xlink="http://www.w3.org/1999/xlink" xmlns="http://www.w3.org/2000/svg" id="图层_18"><defs><style>.cls-1{fill:url(#未命名的渐变_29);}.cls-2{fill:url(#未命名的渐变_29-2);}.cls-3{fill:url(#未命名的渐变_55);}.cls-4{fill:#00eaef;}.cls-5{fill:url(#未命名的渐变_29-3);}.cls-6{fill:url(#未命名的渐变_29-4);}.cls-7{fill:url(#未命名的渐变_55-2);}.cls-8{fill:url(#未命名的渐变_29-5);}.cls-9{fill:url(#未命名的渐变_29-6);}.cls-10{fill:url(#未命名的渐变_67);}</style><linearGradient gradientUnits="userSpaceOnUse" y2="52.16" x2="34.04" y1="52.16" x1="0.01" id="未命名的渐变_29"><stop stop-color="#1e7ffb" offset="0"></stop><stop stop-color="#001aff" offset="1"></stop></linearGradient><linearGradient xlink:href="#未命名的渐变_29" gradientTransform="matrix(-1, 0, 0, 1, 96.87, -1.64)" y2="53.81" x2="28.82" y1="53.81" x1="62.83" id="未命名的渐变_29-2"></linearGradient><linearGradient gradientUnits="userSpaceOnUse" y2="39.11" x2="0.01" y1="39.11" x1="68.05" id="未命名的渐变_55"><stop stop-color="#00a7ef" offset="0"></stop><stop stop-color="#00a9f5" offset="1"></stop></linearGradient><linearGradient xlink:href="#未命名的渐变_29" y2="30.87" x2="34.04" y1="30.87" x1="0" id="未命名的渐变_29-3"></linearGradient><linearGradient xlink:href="#未命名的渐变_29" gradientTransform="matrix(-1, 0, 0, 1, 96.87, -1.64)" y2="32.5" x2="28.85" y1="32.5" x1="62.84" id="未命名的渐变_29-4"></linearGradient><linearGradient xlink:href="#未命名的渐变_55" y2="17.82" x2="0.02" y1="17.82" x1="68.02" id="未命名的渐变_55-2"></linearGradient><linearGradient xlink:href="#未命名的渐变_29" y2="19.8" x2="34.04" y1="19.8" x1="12.19" id="未命名的渐变_29-5"></linearGradient><linearGradient xlink:href="#未命名的渐变_29" gradientTransform="matrix(-1, 0, 0, 1, 96.87, -1.64)" y2="21.44" x2="41" y1="21.44" x1="62.84" id="未命名的渐变_29-6"></linearGradient><radialGradient gradientUnits="userSpaceOnUse" r="17.27" cy="10.93" cx="34.03" id="未命名的渐变_67"><stop stop-color="#005fee" offset="0"></stop><stop stop-color="#00a7ef" offset="1"></stop></radialGradient></defs><polygon points="0.01 39.11 0.05 48.21 34.04 65.22 34.04 56.11 0.01 39.11" class="cls-1"></polygon><polygon points="68.05 39.13 68.01 48.21 34.04 65.22 34.04 56.11 68.05 39.13" class="cls-2"></polygon><g id="背景_图像"><polygon points="34.01 22.09 0.01 39.11 34.04 56.14 68.05 39.13 34.01 22.09" class="cls-3"></polygon></g><g id="图层_19"><polygon points="34.03 39.19 11.11 27.74 11.12 38.57 34.03 50.03 34.03 39.19" class="cls-4"></polygon><polygon points="34.03 39.19 56.95 27.73 56.94 38.58 34.03 50.03 34.03 39.19" class="cls-4"></polygon></g><polygon points="0 17.82 0.04 26.91 34.04 43.92 34.04 34.84 0 17.82" class="cls-5"></polygon><polygon points="68.02 17.82 68.02 26.91 34.03 43.91 34.04 34.83 68.02 17.82" class="cls-6"></polygon><polygon points="34.03 0.81 0.02 17.83 34.03 34.83 68.02 17.82 34.03 0.81" class="cls-7"></polygon><polygon points="12.19 10.93 12.2 17.74 34.04 28.67 34.03 21.87 12.19 10.93" class="cls-8"></polygon><polygon points="55.87 10.94 55.87 17.73 34.03 28.66 34.03 21.86 55.87 10.94" class="cls-9"></polygon><polygon points="34.03 0 12.19 10.93 34.03 21.87 55.87 10.94 34.03 0" class="cls-10"></polygon><polygon points="34.03 3.4 18.89 10.98 34.03 18.56 49.17 10.98 34.03 3.4" class="cls-4"></polygon></svg>