<svg viewBox="0 0 370.94 367.12" xmlns:xlink="http://www.w3.org/1999/xlink" xmlns="http://www.w3.org/2000/svg"><defs><style>.cls-1,.cls-2{stroke-miterlimit:10;stroke-width:0.75px;}.cls-1{fill:url(#未命名的渐变_153);stroke:url(#未命名的渐变_165);}.cls-2{fill:url(#未命名的渐变_153-2);stroke:url(#未命名的渐变_164);}.cls-3{fill:url(#未命名的渐变_41);}.cls-4{fill:url(#未命名的渐变_3);}.cls-5{fill:#dbe2e3;}.cls-6{fill:url(#未命名的渐变_31);}.cls-7{fill:#336097;}.cls-8{fill:#60b5db;}.cls-9{fill:#f4d65c;}.cls-10{fill:#d4e4ef;}.cls-11{fill:#fff;}.cls-12{fill:#252f54;}.cls-13{fill:url(#未命名的渐变_116);}.cls-14{fill:url(#未命名的渐变_125);}</style><radialGradient gradientUnits="userSpaceOnUse" gradientTransform="translate(-12.99 63.55) scale(1 0.7)" r="123.35" cy="268.9" cx="198.46" id="未命名的渐变_153"><stop stop-opacity="0" stop-color="#1271f3" offset="0.74"></stop><stop stop-opacity="0.03" stop-color="#105ff6" offset="0.83"></stop><stop stop-opacity="0.13" stop-color="#092dfd" offset="0.97"></stop><stop stop-opacity="0.15" stop-color="#0720ff" offset="1"></stop></radialGradient><radialGradient gradientUnits="userSpaceOnUse" r="123.71" cy="251.78" cx="185.47" id="未命名的渐变_165"><stop stop-opacity="0" stop-color="#1271f3" offset="0.96"></stop><stop stop-opacity="0.03" stop-color="#1168f4" offset="0.97"></stop><stop stop-opacity="0.13" stop-color="#0d4ff8" offset="0.98"></stop><stop stop-opacity="0.28" stop-color="#0826fe" offset="1"></stop><stop stop-opacity="0.3" stop-color="#0720ff" offset="1"></stop></radialGradient><radialGradient xlink:href="#未命名的渐变_153" gradientTransform="translate(-12.99 65.05) scale(1 0.7)" r="152.24" cy="273.9" cx="198.46" id="未命名的渐变_153-2"></radialGradient><radialGradient gradientUnits="userSpaceOnUse" r="152.6" cy="256.78" cx="185.47" id="未命名的渐变_164"><stop stop-opacity="0" stop-color="#1271f3" offset="0.91"></stop><stop stop-opacity="0.03" stop-color="#1168f4" offset="0.93"></stop><stop stop-opacity="0.13" stop-color="#0d4ff8" offset="0.96"></stop><stop stop-opacity="0.28" stop-color="#0826fe" offset="0.99"></stop><stop stop-opacity="0.3" stop-color="#0720ff" offset="1"></stop></radialGradient><linearGradient gradientUnits="userSpaceOnUse" y2="289.46" x2="317.59" y1="289.46" x1="79.5" id="未命名的渐变_41"><stop stop-color="#074ff7" offset="0"></stop><stop stop-color="#0961e5" offset="0.2"></stop><stop stop-color="#053ff1" offset="1"></stop></linearGradient><linearGradient gradientUnits="userSpaceOnUse" y2="292.69" x2="225.99" y1="152.86" x1="145.25" id="未命名的渐变_3"><stop stop-color="#1271f3" offset="0"></stop><stop stop-color="#1333f1" offset="1"></stop></linearGradient><linearGradient xlink:href="#未命名的渐变_3" y2="265.91" x2="232.68" y1="133.83" x1="156.42" id="未命名的渐变_31"></linearGradient><linearGradient gradientUnits="userSpaceOnUse" y2="220.67" x2="185.71" y1="69.32" x1="185.71" id="未命名的渐变_116"><stop stop-opacity="0" stop-color="#1271f3" offset="0"></stop><stop stop-opacity="0.04" stop-color="#1270f3" offset="0.06"></stop><stop stop-opacity="0.13" stop-color="#126ff3" offset="0.15"></stop><stop stop-opacity="0.29" stop-color="#126cf3" offset="0.26"></stop><stop stop-opacity="0.51" stop-color="#1368f3" offset="0.4"></stop><stop stop-opacity="0.79" stop-color="#1364f3" offset="0.54"></stop><stop stop-opacity="0.9" stop-color="#1362f3" offset="0.6"></stop><stop stop-opacity="0.74" stop-color="#135ff3" offset="0.69"></stop><stop stop-opacity="0.32" stop-color="#1456f2" offset="0.89"></stop><stop stop-opacity="0.1" stop-color="#1452f2" offset="1"></stop></linearGradient><linearGradient gradientUnits="userSpaceOnUse" y2="230.67" x2="185.71" y1="79.32" x1="185.71" id="未命名的渐变_125"><stop stop-opacity="0" stop-color="#1271f3" offset="0"></stop><stop stop-opacity="0.02" stop-color="#1271f3" offset="0.11"></stop><stop stop-opacity="0.07" stop-color="#1270f3" offset="0.23"></stop><stop stop-opacity="0.16" stop-color="#126ef3" offset="0.35"></stop><stop stop-opacity="0.29" stop-color="#126cf3" offset="0.47"></stop><stop stop-opacity="0.45" stop-color="#1369f3" offset="0.6"></stop><stop stop-opacity="0.64" stop-color="#1365f3" offset="0.73"></stop><stop stop-opacity="0.8" stop-color="#1362f3" offset="0.82"></stop><stop stop-opacity="0.71" stop-color="#1360f3" offset="0.85"></stop><stop stop-opacity="0.47" stop-color="#1459f2" offset="0.93"></stop><stop stop-opacity="0.2" stop-color="#1452f2" offset="1"></stop></linearGradient></defs><g id="圆柱体"><ellipse ry="89.1" rx="149.97" cy="251.78" cx="185.47" class="cls-1"></ellipse><ellipse ry="109.96" rx="185.1" cy="256.78" cx="185.47" class="cls-2"></ellipse><path transform="translate(-12.99 -17.12)" d="M198.56,301.94c-63.64,0-115.61-26.34-118.93-59.48v29.67c-.08,1-.13,1.95-.13,2.94,0,34.71,53.29,62.85,119,62.85,65.34,0,118.38-27.81,119-62.23h.06V241C315.67,274.83,263.12,301.94,198.56,301.94Z" class="cls-3"></path><ellipse ry="63.02" rx="118.98" cy="222.78" cx="185.62" class="cls-4"></ellipse></g><g id="话务员"><path transform="translate(-12.99 -17.12)" d="M209.8,140.54l-10.87,16.62-13.37-20.51a9.64,9.64,0,0,1-2.16-2.83l-6.05-12.11c-2-4,.9-5.91,5.39-5.94l36.43-.2c3.75,0,4.88,4.13,2.83,7.27l-9.33,14.33A17.47,17.47,0,0,1,209.8,140.54Z" class="cls-5"></path><path transform="translate(-12.99 -17.12)" d="M282.54,237.12V194.59a64.26,64.26,0,0,0-64.07-64.08H179.23a64.26,64.26,0,0,0-64.07,64.08v42.53Z" class="cls-6"></path><path transform="translate(-12.99 -17.12)" d="M156.1,73.93V53A31,31,0,0,1,187,22.07H212.2A31,31,0,0,1,243.08,53v21h3.79v-21a35.88,35.88,0,0,0-35.78-35.78h-25A35.88,35.88,0,0,0,150.27,52.9v21Z" class="cls-7"></path><path transform="translate(-12.99 -17.12)" d="M160.75,75.37l1.08,10.1s.62,6.51,3.09,9.39a20.86,20.86,0,0,1,.54,4.82,4,4,0,0,1-4,4c-3.17.17-10,.36-10,.36s-2.58.74-3.5-2.55l-4.05-23.9s-.39-4.67,4.63-4.32a56,56,0,0,0,10.13-.36S161,72.51,160.75,75.37Z" class="cls-8"></path><path transform="translate(-12.99 -17.12)" d="M237.76,75.46l-1.56,10s-.92,6.48-3.53,9.24a20.7,20.7,0,0,0-.77,4.79,4,4,0,0,0,3.84,4.18c3.17.31,10,.83,10,.83s2.54.85,3.62-2.39l5.18-23.67a3.94,3.94,0,0,0-4.42-4.54A55.61,55.61,0,0,1,240,73.1S237.68,72.6,237.76,75.46Z" class="cls-8"></path><g id="图层_3"><polygon points="184.59 113.33 164.24 113.47 163.07 128.61 184.68 185.38 207.09 128.28 203.21 113.26 184.59 113.33" class="cls-5"></polygon><polygon points="180.04 118.14 190.71 118.14 199.72 123.42 193.42 131.82 192.89 164.19 184.69 185.32 176.53 164.16 177.22 131.35 170.29 123.25 180.04 118.14" class="cls-9"></polygon><path transform="translate(-12.99 -17.12)" d="M178.6,124.1l-4.46.12-6.26,8.31,3.49,22.89L191.24,136S178.9,124.4,178.6,124.1Z" class="cls-10"></path><path transform="translate(-12.99 -17.12)" d="M218.71,124.38l4.46.12,6.27,8.31-3.5,22.89-19.87-19.4S218.41,124.68,218.71,124.38Z" class="cls-10"></path></g><path transform="translate(-12.99 -17.12)" d="M201,133.61c-21.18.25-32.15-19.14-41.74-46.3V61.68c0-18.61,11.88-30.41,33.84-33.27l12-.56c8.64,0,18.58,5.26,22.58,11.42,10.58-1.09,11,12.58,11,22.73l-2.25,30.52C221.38,135.39,201,133.61,201,133.61Z" class="cls-11"></path><path transform="translate(-12.99 -17.12)" d="M227.68,39.27c-4-6.16-13.94-11.42-22.58-11.42l-12,.56c-22,2.86-33.84,14.66-33.84,33.27v8.43c1,3.2,4.6,4.87,14.22,6,25.89,1.54,37.15-12.82,47.42-18.37.66-.49,1.15-.65,2.29,0s2.77,13.71,9.3,17.79a5,5,0,0,0,5.29-.61l.95-12.9C238.69,51.85,238.26,38.18,227.68,39.27Z" class="cls-12"></path><rect height="151.35" width="237.26" y="69.32" x="67.08" class="cls-13"></rect><polygon points="304.34 230.67 67.08 230.67 7.08 79.32 364.34 79.32 304.34 230.67" class="cls-14"></polygon></g></svg>