<svg xml:space="preserve" style="enable-background:new 0 0 200 200;" viewBox="0 0 200 200" y="0px" x="0px" xmlns:xlink="http://www.w3.org/1999/xlink" xmlns="http://www.w3.org/2000/svg" id="图层_1" version="1.1">
<style type="text/css">
	.st0{fill:url(#SVGID_1_);}
	.st1{fill:url(#SVGID_2_);}
	.st2{fill:url(#SVGID_3_);}
	.st3{fill:#09F0F5;}
</style>
<linearGradient y2="94.104" x2="79.6035" y1="144.8417" x1="117.8371" gradientUnits="userSpaceOnUse" id="SVGID_1_">
	<stop style="stop-color:#1247F9" offset="0"></stop>
	<stop style="stop-color:#00B1FB" offset="1"></stop>
</linearGradient>
<polygon points="98.1,94.6 45.9,119.5 99.1,145.6 151.6,119.4" class="st0"></polygon>
<g>
	<linearGradient y2="135.6758" x2="99.0691" y1="135.6758" x1="45.8359" gradientUnits="userSpaceOnUse" id="SVGID_2_">
		<stop style="stop-color:#1E7FFB" offset="0"></stop>
		<stop style="stop-color:#001AFF" offset="1"></stop>
	</linearGradient>
	<polygon points="45.8,119.5 99.1,145.6 99.1,151.8 45.8,125.8" class="st1"></polygon>
</g>
<linearGradient y2="135.5999" x2="151.5842" y1="135.5999" x1="99.0636" gradientUnits="userSpaceOnUse" id="SVGID_3_">
	<stop style="stop-color:#1E7FFB" offset="0"></stop>
	<stop style="stop-color:#001AFF" offset="1"></stop>
</linearGradient>
<polygon points="99.1,145.6 151.6,119.4 151.4,125.7 99.1,151.8" class="st2"></polygon>
<path d="M105.5,63.8c1.8,0,3.2,1.4,3.2,3.2v16.1h16.1c1.8,0,3.2,1.4,3.2,3.2v32.2c0,1.8-1.4,3.2-3.2,3.2H92.6
	c-1.8,0-3.2-1.4-3.2-3.2v-16.1H73.3c-1.8,0-3.2-1.4-3.2-3.2V67.1c0-1.8,1.4-3.2,3.2-3.2H105.5z M102.3,70.3H76.5v25.8h25.8V70.3z" class="st3"></path>
</svg>
