<?xml version="1.0" standalone="no"?>
<!DOCTYPE svg PUBLIC "-//W3C//DTD SVG 1.1//EN" "http://www.w3.org/Graphics/SVG/1.1/DTD/svg11.dtd"><svg t="1638152265294"
    class="icon" viewBox="0 0 1037 1024" version="1.1" xmlns="http://www.w3.org/2000/svg" p-id="1413"
    data-spm-anchor-id="a313x.7781069.0.i1" xmlns:xlink="http://www.w3.org/1999/xlink" width="48.609375" height="48">
    <defs>
        <style type="text/css"></style>
    </defs>
    <path
        d="M1019.524214 941.185253a47.593401 47.593401 0 0 1-63.866555 70.554152l-3.232338-3.343799-463.004656-462.335896a47.593401 47.593401 0 0 1 0-66.875973l462.558816-461.890056a47.593401 47.593401 0 1 1 70.442692 63.866554q-1.560439 1.671899-3.343799 3.343799L590.514845 512.621724z m-475.488171 0a47.593401 47.593401 0 0 1-66.875973 66.875973L13.932494 546.05971a47.593401 47.593401 0 0 1 0-66.875973L476.37985 16.290541a47.593401 47.593401 0 0 1 66.875974 66.875974L114.915214 512.621724z"
        p-id="1414" fill="rgba(112,236,250,0.47)" data-spm-anchor-id="a313x.7781069.0.i2" class="selected"></path>
</svg>