<?xml version="1.0" standalone="no"?>
<!DOCTYPE svg PUBLIC "-//W3C//DTD SVG 1.1//EN" "http://www.w3.org/Graphics/SVG/1.1/DTD/svg11.dtd"><svg t="1638152293979"
    class="icon" viewBox="0 0 1036 1024" version="1.1" xmlns="http://www.w3.org/2000/svg" p-id="1617"
    data-spm-anchor-id="a313x.7781069.0.i7" xmlns:xlink="http://www.w3.org/1999/xlink" width="48.5625" height="48">
    <defs>
        <style type="text/css"></style>
    </defs>
    <path
        d="M16.728382 82.303638a47.620126 47.620126 0 0 1 63.902417-70.593771l3.234154 3.345676 463.264648 462.595513a47.620126 47.620126 0 0 1 0 66.913527L84.311043 1006.714006a47.620126 47.620126 0 0 1-73.381834-60.668264 39.925071 39.925071 0 0 1 2.899586-3.234154q1.561316-1.672838 3.345677-3.345676l428.692659-428.358092z m475.755173 0a47.620126 47.620126 0 0 1 66.913526-66.913527l463.487694 462.260945a47.620126 47.620126 0 0 1 0 66.913527L560.177739 1007.717709a47.620126 47.620126 0 0 1-66.913526-66.913527l428.581137-429.696362z"
        p-id="1618" data-spm-anchor-id="a313x.7781069.0.i5" class="selected" fill="rgba(112,236,250,0.47)"></path>
</svg>