<svg viewBox="0 0 165.83 165.83" xmlns:xlink="http://www.w3.org/1999/xlink" xmlns="http://www.w3.org/2000/svg" id="图层_1"><defs><style>.cls-1{fill:url(#未命名的渐变_59);}</style><linearGradient gradientUnits="userSpaceOnUse" y2="28.64" x2="58.84" y1="172.31" x1="141.79" id="未命名的渐变_59"><stop stop-color="#250ad0" offset="0"></stop><stop stop-color="#00d6e9" offset="1"></stop></linearGradient></defs><path transform="translate(-17.5 -17.5)" d="M100.42,17.5a82.92,82.92,0,1,0,82.91,82.92C182.92,54.58,145.83,17.5,100.42,17.5Zm50,55-40,51.25-2.09,2.92-2.91-2.09L71.67,98.33,47.92,124.58A3.55,3.55,0,0,1,42.5,120L68.33,91.25l2.09-2.5,2.5,2.08,33.75,26.25,37.5-48.33c1.25-1.67,3.33-1.67,5-.83a2.83,2.83,0,0,1,1.25,4.58Z" class="cls-1"></path></svg>