<svg xml:space="preserve" style="enable-background:new 0 0 200 200;" viewBox="0 0 200 200" y="0px" x="0px" xmlns:xlink="http://www.w3.org/1999/xlink" xmlns="http://www.w3.org/2000/svg" id="图层_1" version="1.1">
<style type="text/css">
	.st0{fill:url(#SVGID_1_);}
	.st1{fill:url(#SVGID_2_);}
	.st2{fill:url(#SVGID_3_);}
	.st3{fill:#09F0F5;}
</style>
<linearGradient y2="94.104" x2="79.6035" y1="144.8417" x1="117.8371" gradientUnits="userSpaceOnUse" id="SVGID_1_">
	<stop style="stop-color:#1247F9" offset="0"></stop>
	<stop style="stop-color:#00B1FB" offset="1"></stop>
</linearGradient>
<polygon points="98.1,94.6 45.9,119.5 99.1,145.6 151.6,119.4" class="st0"></polygon>
<g>
	<linearGradient y2="135.6758" x2="99.0691" y1="135.6758" x1="45.8359" gradientUnits="userSpaceOnUse" id="SVGID_2_">
		<stop style="stop-color:#1E7FFB" offset="0"></stop>
		<stop style="stop-color:#001AFF" offset="1"></stop>
	</linearGradient>
	<polygon points="45.8,119.5 99.1,145.6 99.1,151.8 45.8,125.8" class="st1"></polygon>
</g>
<linearGradient y2="135.5999" x2="151.5842" y1="135.5999" x1="99.0636" gradientUnits="userSpaceOnUse" id="SVGID_3_">
	<stop style="stop-color:#1E7FFB" offset="0"></stop>
	<stop style="stop-color:#001AFF" offset="1"></stop>
</linearGradient>
<polygon points="99.1,145.6 151.6,119.4 151.4,125.7 99.1,151.8" class="st2"></polygon>
<path d="M81.5,57.8c-1.2,0-2.4,0.5-3.4,1.6c-0.4,0.4-0.9,0.9-1.4,1.6c-0.2,0.3-0.4,0.6-0.7,0.9
	c-0.5,0.7-1.1,1.5-1.6,2.3c-0.4,0.6-0.6,0.9-0.7,1l0,0c-1.9,2.7-2.5,7.6-1.4,10.7l0,0.1l0,0.1c0,0.1,0.2,0.7,0.5,1.7
	c0.6,1.6,1.2,3.4,2,5.1c2.5,5.6,5.7,10.8,9.4,15.5c1.2,1.5,2.5,3,3.8,4.3c1.6,1.7,3.4,3.3,5.2,4.9c4.3,3.6,9.1,6.7,14.3,9.2
	c1.6,0.8,3.2,1.5,4.7,2c1.1,0.4,1.6,0.6,1.8,0.6l0.1,0l0.1,0c3,1.2,8,0.8,10.8-0.9l0.1,0c0.2-0.1,0.6-0.3,1.2-0.7
	c1-0.6,1.9-1.1,2.7-1.6c0.3-0.2,0.6-0.4,0.9-0.6c1.3-0.8,2.1-1.5,2.6-1.9c2.2-2.2,2.2-4.8,0-7c-2.9-2.9-5.8-5.8-8.6-8.6
	c-2.1-2.1-4.7-2.1-6.8,0c-0.6,0.6-1.6,1.5-2.8,2.8l-4.4,4.4l-1.4-0.6c-0.5-0.2-1.4-0.6-2.6-1.2c-2.2-1.1-4.3-2.2-6.2-3.5
	c-1.7-1.2-3.3-2.4-4.5-3.6c-1.4-1.3-2.8-3.1-4.1-5.2C90,89.7,89,87.8,88,85.7c-0.5-1.2-0.9-2-1-2.4l-0.6-1.4l4.1-4.1
	c1.4-1.4,2.4-2.4,2.9-2.9c2.2-2.2,2.2-4.8,0-7c-1.9-1.9-7.3-7.3-8.5-8.5C83.8,58.3,82.6,57.8,81.5,57.8z" class="st3"></path>
</svg>
