<svg xml:space="preserve" style="enable-background:new 0 0 200 200;" viewBox="0 0 200 200" y="0px" x="0px" xmlns:xlink="http://www.w3.org/1999/xlink" xmlns="http://www.w3.org/2000/svg" id="图层_1" version="1.1">
<style type="text/css">
	.st0{fill:url(#SVGID_1_);}
	.st1{fill:url(#SVGID_2_);}
	.st2{fill:url(#SVGID_3_);}
	.st3{fill:#09F0F5;}
</style>
<linearGradient y2="94.104" x2="79.6035" y1="144.8417" x1="117.8371" gradientUnits="userSpaceOnUse" id="SVGID_1_">
	<stop style="stop-color:#1247F9" offset="0"></stop>
	<stop style="stop-color:#00B1FB" offset="1"></stop>
</linearGradient>
<polygon points="98.1,94.6 45.9,119.5 99.1,145.6 151.6,119.4" class="st0"></polygon>
<g>
	<linearGradient y2="135.6758" x2="99.0691" y1="135.6758" x1="45.8359" gradientUnits="userSpaceOnUse" id="SVGID_2_">
		<stop style="stop-color:#1E7FFB" offset="0"></stop>
		<stop style="stop-color:#001AFF" offset="1"></stop>
	</linearGradient>
	<polygon points="45.8,119.5 99.1,145.6 99.1,151.8 45.8,125.8" class="st1"></polygon>
</g>
<linearGradient y2="135.5999" x2="151.5842" y1="135.5999" x1="99.0636" gradientUnits="userSpaceOnUse" id="SVGID_3_">
	<stop style="stop-color:#1E7FFB" offset="0"></stop>
	<stop style="stop-color:#001AFF" offset="1"></stop>
</linearGradient>
<polygon points="99.1,145.6 151.6,119.4 151.4,125.7 99.1,151.8" class="st2"></polygon>
<path d="M108.1,117.5c-1.6,1.6-3.9,2.7-6.4,2.7H98c-5,0-9-4.1-9-9l0-17.5c0-0.6,0.5-1.1,1.1-1.1h19.6
	c0.3,0,0.6,0.1,0.8,0.3s0.3,0.5,0.3,0.8v17.4C110.7,113.6,109.7,115.9,108.1,117.5z" class="st3"></path>
<path d="M84.3,109.8c-0.2,0.2-0.5,0.3-0.8,0.3c-0.6,0-1.1-0.5-1.1-1.1V99c0-0.6,0.5-1.1,1.1-1.1s1.1,0.5,1.1,1.1V109
	C84.6,109.3,84.5,109.6,84.3,109.8z M77.4,109.8c-0.2,0.2-0.5,0.3-0.8,0.3c-0.6,0-1.1-0.5-1.1-1.1V99c0-0.6,0.5-1.1,1.1-1.1
	s1.1,0.5,1.1,1.1V109C77.7,109.3,77.6,109.6,77.4,109.8z M70.6,109.8c-0.2,0.2-0.5,0.3-0.8,0.3c-0.6,0-1.1-0.5-1.1-1.1V99
	c0-0.6,0.5-1.1,1.1-1.1s1.1,0.5,1.1,1.1v10.1C70.9,109.4,70.8,109.7,70.6,109.8z M130.6,109.8c-0.2,0.2-0.5,0.3-0.8,0.3
	c-0.6,0-1.1-0.5-1.1-1.1V99c0-0.6,0.5-1.1,1.1-1.1c0.6,0,1.1,0.5,1.1,1.1v10.1C131,109.3,130.8,109.7,130.6,109.8z M123.8,109.8
	c-0.2,0.2-0.5,0.3-0.8,0.3c-0.6,0-1.1-0.5-1.1-1.1V99c0-0.6,0.5-1.1,1.1-1.1c0.6,0,1.1,0.5,1.1,1.1V109
	C124.1,109.3,124,109.6,123.8,109.8z M116.9,109.8c-0.2,0.2-0.5,0.3-0.8,0.3c-0.6,0-1.1-0.5-1.1-1.1V99c0-0.6,0.5-1.1,1.1-1.1
	s1.1,0.5,1.1,1.1V109C117.2,109.3,117.1,109.6,116.9,109.8z M111.8,80.6c-3.1,3.1-7.3,5-12,5c-9,0-16.4-7-16.9-15.9
	c0-0.3,0.1-0.6,0.3-0.8c0.2-0.2,0.5-0.3,0.8-0.3h31.7c0.3,0,0.6,0.1,0.8,0.3c0.2,0.2,0.3,0.5,0.3,0.8
	C116.5,73.9,114.6,77.7,111.8,80.6z" class="st3"></path>
<path d="M106.7,70.3c-0.2,0.2-0.5,0.3-0.8,0.3H93.8c-0.3,0-0.6-0.1-0.8-0.3c-0.2-0.2-0.3-0.5-0.3-0.8
	c0.2-3.8,3.4-6.7,7.2-6.7c3.8,0,6.9,2.9,7.2,6.7C107,69.8,106.9,70.1,106.7,70.3z M104.9,94.5c-0.2,0.2-0.5,0.3-0.8,0.3h-8.7
	c-0.3,0-0.6-0.1-0.8-0.3s-0.3-0.5-0.3-0.8v-9.9c0-0.3,0.2-0.7,0.4-0.9s0.7-0.3,1-0.2c1.3,0.4,2.7,0.6,4,0.5c1.4,0,2.7-0.2,4-0.5
	c0.3-0.1,0.7,0,1,0.2s0.4,0.5,0.4,0.9v9.9C105.2,94.1,105.1,94.3,104.9,94.5z M109.8,53.8c-0.4,0.4-1.1,0.4-1.5,0
	c-4.6-4.6-12.2-4.6-16.8,0c-0.4,0.4-1.1,0.4-1.5,0c-0.4-0.4-0.4-1.1,0-1.5c5.5-5.5,14.4-5.5,19.9,0
	C110.2,52.7,110.2,53.4,109.8,53.8z" class="st3"></path>
<path d="M105,58.6c-0.4,0.4-1.1,0.4-1.5,0c-2-2-5.2-2-7.2,0c-0.4,0.4-1.1,0.4-1.5,0c-0.4-0.4-0.4-1.1,0-1.5
	c2.9-2.9,7.5-2.8,10.3,0C105.4,57.5,105.4,58.2,105,58.6z" class="st3"></path>
</svg>
