<svg xml:space="preserve" style="enable-background:new 0 0 200 200;" viewBox="0 0 200 200" y="0px" x="0px" xmlns:xlink="http://www.w3.org/1999/xlink" xmlns="http://www.w3.org/2000/svg" id="图层_1" version="1.1">
<style type="text/css">
	.st0{fill:url(#SVGID_1_);}
	.st1{fill:url(#SVGID_2_);}
	.st2{fill:url(#SVGID_3_);}
	.st3{fill:#09F0F5;}
</style>
<linearGradient y2="94.104" x2="79.6035" y1="144.8417" x1="117.8371" gradientUnits="userSpaceOnUse" id="SVGID_1_">
	<stop style="stop-color:#1247F9" offset="0"></stop>
	<stop style="stop-color:#00B1FB" offset="1"></stop>
</linearGradient>
<polygon points="98.1,94.6 45.9,119.5 99.1,145.6 151.6,119.4" class="st0"></polygon>
<g>
	<linearGradient y2="135.6758" x2="99.0691" y1="135.6758" x1="45.8359" gradientUnits="userSpaceOnUse" id="SVGID_2_">
		<stop style="stop-color:#1E7FFB" offset="0"></stop>
		<stop style="stop-color:#001AFF" offset="1"></stop>
	</linearGradient>
	<polygon points="45.8,119.5 99.1,145.6 99.1,151.8 45.8,125.8" class="st1"></polygon>
</g>
<linearGradient y2="135.5999" x2="151.5842" y1="135.5999" x1="99.0636" gradientUnits="userSpaceOnUse" id="SVGID_3_">
	<stop style="stop-color:#1E7FFB" offset="0"></stop>
	<stop style="stop-color:#001AFF" offset="1"></stop>
</linearGradient>
<polygon points="99.1,145.6 151.6,119.4 151.4,125.7 99.1,151.8" class="st2"></polygon>
<path d="M100.5,67.8c-9.3,0-16.9,7.4-16.9,16.5c0,9.1,7.6,16.5,16.9,16.5c9.3,0,16.9-7.4,16.9-16.5
	C117.3,75.2,109.8,67.8,100.5,67.8L100.5,67.8L100.5,67.8z M81,90.6V75.4c-0.2,0-0.4,0-0.6,0c3.5-7.5,11.2-12.7,20.1-12.7
	c9,0,16.7,5.2,20.1,12.7c-0.2,0-0.4,0-0.6,0v15.3c4.3,0,7.8-3.4,7.8-7.6c0-2.9-1.6-5.4-4-6.7c-3.3-9.4-12.5-16.2-23.3-16.2
	c-10.8,0-19.9,6.8-23.3,16.2c-2.4,1.3-4,3.8-4,6.7C73.2,87.2,76.7,90.6,81,90.6L81,90.6L81,90.6z M117.3,99.4
	c-4.4,4-10.3,6.5-16.8,6.5c-6.5,0-12.4-2.5-16.8-6.5c-7.9,4-13.1,11-13.1,20.7h59.9C130.5,110.4,125.3,103.3,117.3,99.4L117.3,99.4
	L117.3,99.4z" class="st3"></path>
</svg>
