<svg xml:space="preserve" style="enable-background:new 0 0 200 200;" viewBox="0 0 200 200" y="0px" x="0px" xmlns:xlink="http://www.w3.org/1999/xlink" xmlns="http://www.w3.org/2000/svg" id="图层_1" version="1.1">
<style type="text/css">
	.st0{fill:url(#SVGID_1_);}
	.st1{fill:url(#SVGID_2_);}
	.st2{fill:url(#SVGID_3_);}
	.st3{fill:#09F0F5;}
	.st4{fill:#133CF9;}
</style>
<linearGradient y2="94.104" x2="79.6035" y1="144.8417" x1="117.8371" gradientUnits="userSpaceOnUse" id="SVGID_1_">
	<stop style="stop-color:#1247F9" offset="0"></stop>
	<stop style="stop-color:#00B1FB" offset="1"></stop>
</linearGradient>
<polygon points="98.1,94.6 45.9,119.5 99.1,145.6 151.6,119.4" class="st0"></polygon>
<g>
	<linearGradient y2="135.6758" x2="99.0691" y1="135.6758" x1="45.8359" gradientUnits="userSpaceOnUse" id="SVGID_2_">
		<stop style="stop-color:#1E7FFB" offset="0"></stop>
		<stop style="stop-color:#001AFF" offset="1"></stop>
	</linearGradient>
	<polygon points="45.8,119.5 99.1,145.6 99.1,151.8 45.8,125.8" class="st1"></polygon>
</g>
<linearGradient y2="135.5999" x2="151.5842" y1="135.5999" x1="99.0636" gradientUnits="userSpaceOnUse" id="SVGID_3_">
	<stop style="stop-color:#1E7FFB" offset="0"></stop>
	<stop style="stop-color:#001AFF" offset="1"></stop>
</linearGradient>
<polygon points="99.1,145.6 151.6,119.4 151.4,125.7 99.1,151.8" class="st2"></polygon>
<path d="M121.4,80.6c1.6,0,2.8,1.3,2.8,2.8l0,0c0,13.1-9.9,24.1-22.9,25.5l0,0.1v5.6c0,0,0,0,0,0h11
	c1.6,0,2.8,1.3,2.8,2.8c0,1.4-1.1,2.6-2.5,2.8l-0.3,0H84c-1.6,0-2.8-1.3-2.8-2.8c0-1.4,1.1-2.6,2.5-2.8l0.3,0h11.6c0,0,0,0,0,0V109
	l0-0.1c-13-1.4-22.8-12.3-22.9-25.3c0-1.6,1.2-3,2.7-3.1c1.6-0.1,2.9,1.2,2.9,2.8c0,11.1,9,20,20.1,20s20.1-9,20.1-20
	C118.5,81.8,119.8,80.6,121.4,80.6C121.4,80.6,121.4,80.6,121.4,80.6z M99.7,49c9.8,0,17.8,6,17.8,15.8c0,0,0,0,0,0v18.8
	c0,9.8-8,15.8-17.8,15.8s-17.8-6-17.8-15.8V64.9C81.8,55,89.8,49,99.7,49z" class="st3"></path>
<path d="M93.9,66.9H81.9c0,0-0.1,0-0.1-0.1V63h12c1.1,0,1.9,0.9,1.9,1.9l0,0C95.8,66,94.9,66.9,93.9,66.9z" class="st4"></path>
<path d="M93.9,72.9H81.9c0,0-0.1,0-0.1-0.1v-3.7h12c1.1,0,1.9,0.9,1.9,1.9v0C95.8,72,94.9,72.9,93.9,72.9z" class="st4"></path>
<path d="M94,78.9H82c0,0-0.1,0-0.1-0.1v-3.7h12c1.1,0,1.9,0.9,1.9,1.9v0C95.9,78.1,95,78.9,94,78.9z" class="st4"></path>
</svg>
