<svg xml:space="preserve" style="enable-background:new 0 0 200 200;" viewBox="0 0 200 200" y="0px" x="0px" xmlns:xlink="http://www.w3.org/1999/xlink" xmlns="http://www.w3.org/2000/svg" id="图层_1" version="1.1">
<style type="text/css">
	.st0{fill:url(#SVGID_1_);}
	.st1{fill:url(#SVGID_2_);}
	.st2{fill:url(#SVGID_3_);}
	.st3{fill:#133CF9;}
	.st4{fill:#09F0F5;}
</style>
<linearGradient y2="94.104" x2="79.6035" y1="144.8417" x1="117.8371" gradientUnits="userSpaceOnUse" id="SVGID_1_">
	<stop style="stop-color:#1247F9" offset="0"></stop>
	<stop style="stop-color:#00B1FB" offset="1"></stop>
</linearGradient>
<polygon points="98.1,94.6 45.9,119.5 99.1,145.6 151.6,119.4" class="st0"></polygon>
<g>
	<linearGradient y2="135.6758" x2="99.0691" y1="135.6758" x1="45.8359" gradientUnits="userSpaceOnUse" id="SVGID_2_">
		<stop style="stop-color:#1E7FFB" offset="0"></stop>
		<stop style="stop-color:#001AFF" offset="1"></stop>
	</linearGradient>
	<polygon points="45.8,119.5 99.1,145.6 99.1,151.8 45.8,125.8" class="st1"></polygon>
</g>
<linearGradient y2="135.5999" x2="151.5842" y1="135.5999" x1="99.0636" gradientUnits="userSpaceOnUse" id="SVGID_3_">
	<stop style="stop-color:#1E7FFB" offset="0"></stop>
	<stop style="stop-color:#001AFF" offset="1"></stop>
</linearGradient>
<polygon points="99.1,145.6 151.6,119.4 151.4,125.7 99.1,151.8" class="st2"></polygon>
<path d="M93.9,66.9H81.9c0,0-0.1,0-0.1-0.1V63h12c1.1,0,1.9,0.9,1.9,1.9l0,0C95.8,66,94.9,66.9,93.9,66.9z" class="st3"></path>
<path d="M98.9,66.9c6.5,0,11.8,5.3,11.8,11.8c0,6.5-5.3,11.8-11.8,11.8c-6.5,0-11.8-5.3-11.8-11.8
	C87,72.2,92.3,66.9,98.9,66.9z M124.8,78.7c0-14.3-11.6-25.9-25.9-25.9c-14.3,0-25.9,11.6-25.9,25.9c0,5,1.5,9.9,4.2,14.2l19.4,25.9
	c0.6,1.3,2.2,1.8,3.5,1.2c0.5-0.3,0.9-0.7,1.2-1.2l19.4-25.9C123.2,88.8,124.8,83.9,124.8,78.7z" class="st4"></path>
<path d="M121.5,52.8c-0.8-0.1-1.7,0.4-1.9,1.2c-0.2,0.8,0.3,1.5,1.1,1.7c1.9,0.3,3.5,1.4,4.4,2.9c0.9,1.6,1,3.5,0.4,5.2
	c-0.2,0.4-0.1,0.8,0.1,1.2c0.2,0.3,0.5,0.5,0.8,0.6c0.8,0.2,1.7-0.2,2-1c1-2.6,0.8-5.3-0.5-7.6C126.5,54.7,124.2,53.2,121.5,52.8
	L121.5,52.8L121.5,52.8z M124.3,45.8c-0.8-0.2-1.7,0.3-1.9,1.1c-0.3,0.8,0.2,1.6,1,1.7c3.7,0.8,6.7,3,8.5,6.1
	c1.8,3.1,2.1,6.8,1,10.4c-0.1,0.4-0.1,0.8,0.1,1.1c0.2,0.3,0.5,0.6,0.9,0.6c0.8,0.2,1.7-0.3,1.9-1.1c1.4-4.3,1-8.8-1.2-12.6
	C132.4,49.3,128.8,46.7,124.3,45.8L124.3,45.8L124.3,45.8z M127.1,38.8c-0.8-0.2-1.7,0.3-1.9,1.1c-0.3,0.8,0.2,1.6,1,1.8
	c5.4,1.3,9.9,4.5,12.6,9.2c2.7,4.6,3.2,10.1,1.6,15.5c-0.1,0.4-0.1,0.8,0.1,1.1c0.2,0.3,0.5,0.6,0.9,0.6c0.8,0.2,1.7-0.4,1.9-1.1
	c1.8-6.1,1.2-12.3-1.9-17.6C138.3,43.9,133.2,40.2,127.1,38.8L127.1,38.8L127.1,38.8z" class="st4"></path>
</svg>
